<svg xmlns="http://www.w3.org/2000/svg"  viewBox="0 0 50 50" width="50px" height="50px"><path d="M 24.144531 3.0078125 C 23.893386 3.0078125 23.64224 3.0315875 23.394531 3.078125 A 1.0001 1.0001 0 0 0 23.326172 3.09375 L 19.912109 3.9882812 L 9.1445312 3.09375 L 9.1425781 3.09375 C 8.1485043 3.0091565 7.1757122 3.4253335 6.5507812 4.203125 A 1.0001 1.0001 0 0 0 6.5488281 4.2070312 L 3.6582031 7.8261719 C 3.2326526 8.3575262 3.000531 9.0184119 3 9.6992188 L 3 12.529297 A 1.0001 1.0001 0 0 0 3 12.53125 C 3.0004945 12.994578 3.1077776 13.450556 3.3144531 13.865234 A 1.0001 1.0001 0 0 0 3.3164062 13.867188 L 4 15.236328 L 4 23.859375 L 3.0996094 26.994141 A 1.0001 1.0001 0 0 0 3.0898438 27.025391 C 2.9153633 27.719901 2.9948298 28.4549 3.3144531 29.095703 A 1.0001 1.0001 0 0 0 3.3476562 29.154297 L 4 30.271484 L 4 36.810547 L 3.1191406 39.042969 A 1.0001 1.0001 0 0 0 3.0957031 39.109375 C 2.8749418 39.811756 3.0606761 40.583696 3.5761719 41.109375 A 1.0001 1.0001 0 0 0 3.59375 41.126953 L 7.7011719 45.115234 C 8.2645887 45.682008 9.0309047 46.000633 9.8300781 46 L 19.289062 46 A 1.0001 1.0001 0 0 0 19.292969 46 C 19.48027 45.999358 19.658803 46.07241 19.791016 46.205078 C 20.299175 46.715008 20.99109 47.001969 21.710938 47 L 27.289062 47 C 28.00891 47.002 28.700825 46.715008 29.208984 46.205078 C 29.341204 46.072405 29.51973 45.999358 29.707031 46 A 1.0001 1.0001 0 0 0 29.710938 46 L 40.449219 46 A 1.0001 1.0001 0 0 0 40.46875 46 C 40.998334 45.98998 41.51597 45.839316 41.96875 45.564453 L 45.5 43.445312 C 46.416729 42.916125 46.988292 41.939299 47 40.880859 A 1.0001 1.0001 0 0 0 47 40.869141 L 47 35.470703 A 1.0001 1.0001 0 0 0 47 35.46875 C 46.999505 35.005422 46.892222 34.549444 46.685547 34.134766 A 1.0001 1.0001 0 0 0 46.683594 34.132812 L 46.105469 32.974609 C 46.036561 32.836351 46.000165 32.683776 46 32.529297 L 46 19.416016 L 46 19.414062 L 46.417969 18.998047 A 1.0001 1.0001 0 0 0 46.419922 18.994141 C 46.789107 18.621918 46.997792 18.118065 47 17.59375 A 1.0001 1.0001 0 0 0 47 17.589844 L 47 9.8300781 C 47.000633 9.0317897 46.68279 8.2663694 46.117188 7.703125 L 46.115234 7.7011719 L 43.298828 4.8847656 L 43.296875 4.8828125 C 42.733724 4.3172025 41.96821 3.9993674 41.169922 4 L 29.107422 4 L 24.923828 3.0839844 A 1.0001 1.0001 0 0 0 24.894531 3.078125 C 24.646823 3.0315875 24.395677 3.0078125 24.144531 3.0078125 z M 24.150391 5.0097656 C 24.275656 5.009617 24.399985 5.0198978 24.523438 5.0429688 L 28.785156 5.9765625 A 1.0001 1.0001 0 0 0 29 6 L 41.169922 6 C 41.436838 5.9997885 41.692684 6.1056231 41.880859 6.2949219 A 1.0001 1.0001 0 0 0 41.882812 6.296875 L 44.703125 9.1171875 A 1.0001 1.0001 0 0 0 44.705078 9.1191406 C 44.894283 9.3073224 45.000211 9.5631624 45 9.8300781 L 45 17.583984 L 45 17.585938 L 44.582031 18.001953 A 1.0001 1.0001 0 0 0 44.580078 18.005859 C 44.210893 18.378082 44.002208 18.881935 44 19.40625 A 1.0001 1.0001 0 0 0 44 19.410156 L 44 32.529297 A 1.0001 1.0001 0 0 0 44 32.53125 C 44.000495 32.994578 44.107778 33.450556 44.314453 33.865234 A 1.0001 1.0001 0 0 0 44.316406 33.867188 L 44.894531 35.025391 C 44.963441 35.163649 44.999835 35.316224 45 35.470703 L 45 40.859375 C 44.9961 41.214217 44.807333 41.537434 44.5 41.714844 A 1.0001 1.0001 0 0 0 44.486328 41.722656 L 40.935547 43.851562 A 1.0001 1.0001 0 0 0 40.931641 43.855469 C 40.780654 43.947129 40.608239 43.996658 40.431641 44 L 29.712891 44 L 29.710938 44 C 28.99109 43.998 28.299175 44.284992 27.791016 44.794922 C 27.658795 44.927527 27.48027 45.000642 27.292969 45 A 1.0001 1.0001 0 0 0 27.289062 45 L 21.710938 45 A 1.0001 1.0001 0 0 0 21.707031 45 C 21.519716 45.000642 21.341197 44.927595 21.208984 44.794922 C 20.700825 44.284992 20.008909 43.998031 19.289062 44 L 9.8300781 44 C 9.5631624 44.000211 9.3073162 43.894377 9.1191406 43.705078 A 1.0001 1.0001 0 0 0 9.1074219 43.693359 L 5.0058594 39.712891 L 5.9296875 37.367188 A 1.0001 1.0001 0 0 0 6 37 L 6 30 A 1.0001 1.0001 0 0 0 5.8632812 29.494141 L 5.1054688 28.203125 L 5.1054688 28.201172 C 5.0001309 27.98897 4.9724919 27.747571 5.0292969 27.517578 L 5.9609375 24.275391 A 1.0001 1.0001 0 0 0 6 24 L 6 15 A 1.0001 1.0001 0 0 0 5.8945312 14.552734 L 5.1054688 12.974609 C 5.0365608 12.836351 5.0001649 12.683776 5 12.529297 L 5 9.7011719 L 5 9.6992188 C 5.0006052 9.4724297 5.078758 9.2530992 5.2207031 9.0761719 A 1.0001 1.0001 0 0 0 5.2207031 9.0742188 L 8.109375 5.4570312 C 8.3187848 5.1963991 8.6414947 5.0573677 8.9746094 5.0859375 A 1.0001 1.0001 0 0 0 8.9765625 5.0859375 L 19.917969 5.9960938 A 1.0001 1.0001 0 0 0 20.253906 5.9667969 L 23.775391 5.0429688 C 23.898924 5.0204923 24.025125 5.0099142 24.150391 5.0097656 z M 25.785156 8.0136719 C 23.734375 7.9109375 21 8.5792969 21 10.029297 C 21 12.029297 24 20.029297 24 21.029297 C 24 22.349297 23.15 22.379297 22 21.029297 C 21.08 19.959297 16 12.029297 14 12.029297 C 12 12.029297 9 14.029297 9 17.029297 C 9 19.029297 20 23.029297 20 24.029297 C 20 27.029297 8.7503906 22.029297 8.1503906 25.029297 A 8.84 8.84 0 0 0 9.0703125 30.519531 C 10.070312 32.519531 18.760937 28.440625 19.710938 28.140625 C 20.960938 27.740625 21.140156 28.700937 20.910156 29.210938 C 19.740156 31.760937 13 37 13 38 C 13 39 17 42 18 42 C 20 42 22 31.200547 25 30.060547 C 27.15 29.210547 26.87 42 29 42 C 31.13 42 35.669922 39.49 34.919922 38 C 33.779922 35.72 29.459297 32.5 29.029297 30 C 28.949297 29.54 29.029297 29 30.029297 29 C 31.029297 29 39.029297 34 40.029297 34 C 41.029297 34 42.029297 30 42.029297 28 C 42.029297 26 31.060547 28 30.060547 26 C 29.060547 24 41 19.41 41 18 C 41 17 39 13 37 13 C 35 13 30 21.999922 28 20.919922 C 25.73 19.749922 28.09 12.239297 28 9.0292969 C 28 8.4142969 27.015625 8.0753125 25.785156 8.0136719 z M 24.916016 24.001953 A 2 2 0 0 1 27 26 A 2 2 0 0 1 25 28 A 2 2 0 0 1 24.916016 24.001953 z"/></svg>